<svg width="130" height="32" viewBox="0 0 130 32" fill="none" xmlns="http://www.w3.org/2000/svg">
<path d="M10.8752 9.17707C11.2028 9.04503 11.5303 8.91299 11.8579 8.91299C12.9061 8.91299 13.7578 9.63923 14.0198 10.6296H27.057C27.319 9.63923 28.1707 8.91299 29.2189 8.91299C30.4637 8.91299 31.5119 9.96934 31.5119 11.2238C31.5119 12.4782 30.5292 13.5345 29.2189 13.5345C28.3673 13.5345 27.6466 13.0724 27.2535 12.3461H13.8233C13.4302 13.0724 12.7096 13.5345 11.8579 13.5345C10.6132 13.5345 9.56494 12.4782 9.56494 11.2238C9.56494 10.9597 9.63046 10.6956 9.69597 10.4975L3.21015 4.35746C2.9481 4.4895 2.62053 4.62155 2.29297 4.62155C1.04821 4.62155 0 3.56519 0 2.31077C0 1.05635 0.9827 0 2.29297 0C3.60323 0 4.58593 1.05635 4.58593 2.31077C4.52042 2.57486 4.45491 2.83895 4.38939 3.10304L10.8752 9.17707ZM29.2845 12.5442C29.9396 12.5442 30.5292 11.95 30.5292 11.2898C30.5292 10.5635 30.0051 10.0354 29.2845 10.0354C28.6293 10.0354 28.0397 10.6296 28.0397 11.2898C28.0397 11.95 28.5638 12.5442 29.2845 12.5442ZM2.29297 3.56519C2.9481 3.56519 3.53772 2.971 3.53772 2.31077C3.53772 1.65055 2.9481 0.990332 2.29297 0.990332C1.63783 0.990332 1.04821 1.58453 1.04821 2.24475C1.04821 2.90497 1.57232 3.56519 2.29297 3.56519ZM11.8579 12.5442C12.513 12.5442 13.1027 11.95 13.1027 11.2898C13.1027 10.5635 12.5786 10.0354 11.8579 10.0354C11.1373 10.0354 10.6132 10.6296 10.6132 11.2898C10.6132 11.95 11.2028 12.5442 11.8579 12.5442Z" fill="white"/>
<path d="M11.8579 4.0276C12.8348 4.0276 13.6267 3.2295 13.6267 2.245C13.6267 1.2605 12.8348 0.462402 11.8579 0.462402C10.881 0.462402 10.0891 1.2605 10.0891 2.245C10.0891 3.2295 10.881 4.0276 11.8579 4.0276Z" fill="white"/>
<path d="M20.5713 4.0276C21.5481 4.0276 22.3401 3.2295 22.3401 2.245C22.3401 1.2605 21.5481 0.462402 20.5713 0.462402C19.5944 0.462402 18.8025 1.2605 18.8025 2.245C18.8025 3.2295 19.5944 4.0276 20.5713 4.0276Z" fill="white"/>
<path d="M29.2845 4.0276C30.2614 4.0276 31.0533 3.2295 31.0533 2.245C31.0533 1.2605 30.2614 0.462402 29.2845 0.462402C28.3077 0.462402 27.5157 1.2605 27.5157 2.245C27.5157 3.2295 28.3077 4.0276 29.2845 4.0276Z" fill="white"/>
<path d="M2.29296 13.073C3.26983 13.073 4.06174 12.2749 4.06174 11.2904C4.06174 10.3059 3.26983 9.50781 2.29296 9.50781C1.31608 9.50781 0.52417 10.3059 0.52417 11.2904C0.52417 12.2749 1.31608 13.073 2.29296 13.073Z" fill="white"/>
<path d="M2.29296 22.052C3.26983 22.052 4.06174 21.2539 4.06174 20.2694C4.06174 19.2849 3.26983 18.4868 2.29296 18.4868C1.31608 18.4868 0.52417 19.2849 0.52417 20.2694C0.52417 21.2539 1.31608 22.052 2.29296 22.052Z" fill="white"/>
<path d="M11.8579 22.052C12.8348 22.052 13.6267 21.2539 13.6267 20.2694C13.6267 19.2849 12.8348 18.4868 11.8579 18.4868C10.881 18.4868 10.0891 19.2849 10.0891 20.2694C10.0891 21.2539 10.881 22.052 11.8579 22.052Z" fill="white"/>
<path d="M12.6436 27.0691L18.4743 21.1931C18.3432 20.929 18.2777 20.5989 18.2777 20.2688C18.2777 19.0144 19.2604 17.958 20.5707 17.958C21.5534 17.958 22.3396 18.5522 22.6671 19.4765H27.122C27.4496 18.6182 28.3013 17.958 29.2184 17.958C30.4632 17.958 31.5114 19.0144 31.5114 20.2688C31.5114 21.5232 30.5287 22.5796 29.2184 22.5796C28.3013 22.5796 27.5151 21.9854 27.122 21.1931H22.5361C22.2085 21.9854 21.4224 22.5796 20.4397 22.5796C20.1776 22.5796 19.85 22.5135 19.588 22.4475L13.7573 28.3235C13.8883 28.6536 13.9539 28.9837 13.9539 29.3138C13.9539 30.5682 12.9712 31.6246 11.6609 31.6246C10.3506 31.6246 9.36792 30.5682 9.36792 29.3138C9.36792 28.0594 10.3506 27.003 11.6609 27.003C12.1195 26.937 12.3815 27.003 12.6436 27.0691ZM20.5707 21.5232C21.2258 21.5232 21.8154 20.929 21.8154 20.2688C21.8154 19.5425 21.2913 19.0144 20.5707 19.0144C19.9156 19.0144 19.3259 19.6086 19.3259 20.2688C19.3259 20.995 19.85 21.5232 20.5707 21.5232ZM29.284 21.5232C29.9391 21.5232 30.5287 20.929 30.5287 20.2688C30.5287 19.5425 30.0046 19.0144 29.284 19.0144C28.6288 19.0144 28.0392 19.6086 28.0392 20.2688C28.0392 20.995 28.5633 21.5232 29.284 21.5232ZM11.8574 30.5682C12.5126 30.5682 13.1022 29.974 13.1022 29.3138C13.1022 28.6536 12.5781 28.0594 11.8574 28.0594C11.1368 28.0594 10.6127 28.6536 10.6127 29.3138C10.6127 29.974 11.2023 30.5682 11.8574 30.5682Z" fill="white"/>
<path d="M2.29296 31.03C3.26983 31.03 4.06174 30.2319 4.06174 29.2474C4.06174 28.2629 3.26983 27.4648 2.29296 27.4648C1.31608 27.4648 0.52417 28.2629 0.52417 29.2474C0.52417 30.2319 1.31608 31.03 2.29296 31.03Z" fill="white"/>
<path d="M20.5713 31.03C21.5481 31.03 22.3401 30.2319 22.3401 29.2474C22.3401 28.2629 21.5481 27.4648 20.5713 27.4648C19.5944 27.4648 18.8025 28.2629 18.8025 29.2474C18.8025 30.2319 19.5944 31.03 20.5713 31.03Z" fill="white"/>
<path d="M29.2845 31.03C30.2614 31.03 31.0533 30.2319 31.0533 29.2474C31.0533 28.2629 30.2614 27.4648 29.2845 27.4648C28.3077 27.4648 27.5157 28.2629 27.5157 29.2474C27.5157 30.2319 28.3077 31.03 29.2845 31.03Z" fill="white"/>
<path d="M43.4957 0H45.7996V8.11527L50.7399 0H53.1935V12.1895H50.8896V4.23224L45.9576 12.1895H43.4957V0Z" fill="white"/>
<path d="M55.5971 3.35919H57.9342V6.59365H61.2777V3.35919H63.6232V12.1895H61.2777V8.48112H57.9342V12.1895H55.5971V3.35919Z" fill="white"/>
<path d="M69.6447 12.1895V8.42292C69.3398 8.44509 69.1263 8.51438 69.0043 8.63079C68.8879 8.74165 68.68 9.07701 68.3805 9.63688L67.2661 12.1895H64.7543L66.0019 9.75329C66.634 8.53378 67.291 7.83533 67.973 7.65795C67.4629 7.46394 67.072 6.96228 66.8003 6.15297C66.5951 5.54876 66.4066 5.18845 66.2347 5.07204C66.0684 4.95009 65.6747 4.88912 65.0537 4.88912V3.34256C65.5139 3.31484 65.8355 3.30098 66.0185 3.30098C66.5341 3.30098 66.975 3.41462 67.3409 3.64189C67.7069 3.86916 68.0506 4.43457 68.3722 5.33812C68.6217 6.0421 68.8214 6.48833 68.9711 6.6768C69.1208 6.85973 69.3453 6.95673 69.6447 6.96782V3.35919H71.9652V6.96782C72.2646 6.96782 72.4892 6.87081 72.6389 6.6768C72.7942 6.48279 72.9938 6.03656 73.2377 5.33812C73.5538 4.44566 73.8892 3.88302 74.2441 3.65021C74.6045 3.41739 75.0647 3.30098 75.6248 3.30098C75.7856 3.30098 76.0961 3.31484 76.5563 3.34256V4.88912C75.9408 4.88912 75.5471 4.95009 75.3752 5.07204C75.2034 5.18845 75.0148 5.54876 74.8097 6.15297C74.538 6.96228 74.1471 7.46394 73.637 7.65795C74.319 7.83533 74.976 8.53378 75.6081 9.75329L76.8557 12.1895H74.3439L73.2377 9.63688C73.0381 9.18234 72.8524 8.87192 72.6805 8.70562C72.5142 8.53932 72.2757 8.44509 71.9652 8.42292V12.1895H69.6447Z" fill="white"/>
<path d="M82.9438 9.37912L85.2726 9.76992C84.9732 10.6236 84.4991 11.2749 83.8504 11.7239C83.2072 12.1674 82.4004 12.3891 81.4301 12.3891C79.8942 12.3891 78.7575 11.8874 78.0201 10.8841C77.4379 10.0803 77.1468 9.06593 77.1468 7.84088C77.1468 6.37747 77.5294 5.23279 78.2946 4.40686C79.0597 3.57537 80.0273 3.15963 81.1972 3.15963C82.5113 3.15963 83.5482 3.59477 84.3078 4.46506C85.0675 5.3298 85.4306 6.6574 85.3974 8.44786H79.5421C79.5588 9.14076 79.7473 9.68123 80.1077 10.0693C80.4681 10.4517 80.9172 10.643 81.4551 10.643C81.821 10.643 82.1287 10.5432 82.3783 10.3436C82.6278 10.1441 82.8163 9.82258 82.9438 9.37912ZM83.0769 7.01771C83.0603 6.34144 82.8856 5.82869 82.5529 5.47947C82.2202 5.1247 81.8155 4.94732 81.3386 4.94732C80.8285 4.94732 80.4071 5.13302 80.0744 5.50441C79.7417 5.87581 79.5782 6.38024 79.5837 7.01771H83.0769Z" fill="white"/>
<path d="M87.2188 3.35919H89.5559V6.59365H92.8994V3.35919H95.2448V12.1895H92.8994V8.48112H89.5559V12.1895H87.2188V3.35919Z" fill="white"/>
<path d="M102.722 9.37912L105.051 9.76992C104.751 10.6236 104.277 11.2749 103.628 11.7239C102.985 12.1674 102.179 12.3891 101.208 12.3891C99.6723 12.3891 98.5356 11.8874 97.7982 10.8841C97.216 10.0803 96.9249 9.06593 96.9249 7.84088C96.9249 6.37747 97.3075 5.23279 98.0727 4.40686C98.8378 3.57537 99.8054 3.15963 100.975 3.15963C102.289 3.15963 103.326 3.59477 104.086 4.46506C104.846 5.3298 105.209 6.6574 105.175 8.44786H99.3202C99.3369 9.14076 99.5254 9.68123 99.8858 10.0693C100.246 10.4517 100.695 10.643 101.233 10.643C101.599 10.643 101.907 10.5432 102.156 10.3436C102.406 10.1441 102.594 9.82258 102.722 9.37912ZM102.855 7.01771C102.838 6.34144 102.664 5.82869 102.331 5.47947C101.998 5.1247 101.594 4.94732 101.117 4.94732C100.607 4.94732 100.185 5.13302 99.8525 5.50441C99.5198 5.87581 99.3563 6.38024 99.3618 7.01771H102.855Z" fill="white"/>
<path d="M107.022 3.35919H109.201V4.6563C109.484 4.21284 109.866 3.85253 110.349 3.57537C110.831 3.29821 111.366 3.15963 111.954 3.15963C112.98 3.15963 113.85 3.56152 114.566 4.36528C115.281 5.16905 115.638 6.28878 115.638 7.72447C115.638 9.19897 115.278 10.3464 114.557 11.1668C113.836 11.9817 112.963 12.3891 111.937 12.3891C111.449 12.3891 111.006 12.2921 110.607 12.0981C110.213 11.9041 109.797 11.5715 109.359 11.1003V15.5487H107.022V3.35919ZM109.334 7.62469C109.334 8.61693 109.531 9.3514 109.925 9.82812C110.318 10.2993 110.798 10.5349 111.363 10.5349C111.907 10.5349 112.359 10.3187 112.719 9.88632C113.08 9.44841 113.26 8.73334 113.26 7.7411C113.26 6.81538 113.074 6.12802 112.702 5.67902C112.331 5.23002 111.871 5.00552 111.322 5.00552C110.751 5.00552 110.277 5.22725 109.9 5.67071C109.523 6.10862 109.334 6.75995 109.334 7.62469Z" fill="white"/>
<path d="M117.518 3.35919H119.855V7.02603H122.201C123.121 7.02603 123.822 7.09254 124.305 7.22558C124.793 7.35308 125.203 7.63578 125.536 8.07369C125.874 8.51161 126.043 9.02713 126.043 9.62025C126.043 10.4739 125.749 11.1169 125.162 11.5493C124.574 11.9761 123.692 12.1895 122.517 12.1895H117.518V3.35919ZM119.855 10.7095H122.026C122.592 10.7095 123.002 10.6208 123.257 10.4434C123.512 10.266 123.639 9.97779 123.639 9.57868C123.639 9.15185 123.473 8.86083 123.14 8.70562C122.813 8.54487 122.223 8.46449 121.369 8.46449H119.855V10.7095ZM127.374 3.35919H129.711V12.1895H127.374V3.35919Z" fill="white"/>
<path d="M43.4957 15.7183H53.1935V27.9078H50.7316V17.7637H45.9576V27.9078H43.4957V15.7183Z" fill="white"/>
<path d="M55.6221 19.0775H57.8012V20.3746C58.084 19.9311 58.4665 19.5708 58.9489 19.2936C59.4313 19.0165 59.9664 18.8779 60.5541 18.8779C61.5799 18.8779 62.4504 19.2798 63.1657 20.0835C63.881 20.8873 64.2386 22.007 64.2386 23.4427C64.2386 24.9172 63.8782 26.0647 63.1574 26.8851C62.4366 27.6999 61.5633 28.1073 60.5375 28.1073C60.0496 28.1073 59.606 28.0103 59.2068 27.8163C58.8131 27.6223 58.3972 27.2897 57.9592 26.8186V31.267H55.6221V19.0775ZM57.9342 23.343C57.9342 24.3352 58.1311 25.0697 58.5248 25.5464C58.9184 26.0176 59.3981 26.2531 59.9636 26.2531C60.507 26.2531 60.9589 26.037 61.3193 25.6046C61.6797 25.1667 61.8599 24.4516 61.8599 23.4594C61.8599 22.5336 61.6742 21.8463 61.3027 21.3973C60.9312 20.9483 60.471 20.7238 59.922 20.7238C59.3509 20.7238 58.8769 20.9455 58.4998 21.389C58.1228 21.8269 57.9342 22.4782 57.9342 23.343Z" fill="white"/>
<path d="M65.561 23.3679C65.561 22.5918 65.7523 21.8407 66.1349 21.1146C66.5175 20.3884 67.0581 19.8341 67.7568 19.4516C68.4609 19.0691 69.2455 18.8779 70.1105 18.8779C71.4468 18.8779 72.5419 19.313 73.3958 20.1833C74.2497 21.0481 74.6766 22.1428 74.6766 23.4677C74.6766 24.8036 74.2441 25.9122 73.3791 26.7936C72.5197 27.6694 71.4357 28.1073 70.1271 28.1073C69.3176 28.1073 68.5441 27.9244 67.8067 27.5586C67.0748 27.1927 66.5175 26.6578 66.1349 25.9538C65.7523 25.2443 65.561 24.3823 65.561 23.3679ZM67.9564 23.4926C67.9564 24.3684 68.1643 25.0392 68.5802 25.5048C68.996 25.9704 69.5089 26.2033 70.1188 26.2033C70.7287 26.2033 71.2389 25.9704 71.6492 25.5048C72.065 25.0392 72.273 24.3629 72.273 23.476C72.273 22.6112 72.065 21.9461 71.6492 21.4804C71.2389 21.0148 70.7287 20.782 70.1188 20.782C69.5089 20.782 68.996 21.0148 68.5802 21.4804C68.1643 21.9461 67.9564 22.6168 67.9564 23.4926Z" fill="white"/>
<path d="M84.6156 27.9078H82.4448V26.6107C82.0844 27.1151 81.6574 27.4921 81.164 27.7415C80.676 27.9854 80.1825 28.1073 79.6835 28.1073C78.6688 28.1073 77.7983 27.6999 77.0719 26.8851C76.3511 26.0647 75.9907 24.9228 75.9907 23.4594C75.9907 21.9627 76.3428 20.8263 77.047 20.0503C77.7512 19.2687 78.6411 18.8779 79.7168 18.8779C80.7037 18.8779 81.5576 19.2881 82.2785 20.1085V15.7183H84.6156V27.9078ZM78.3777 23.3014C78.3777 24.2437 78.508 24.9255 78.7686 25.3468C79.1457 25.9566 79.6724 26.2615 80.3489 26.2615C80.8867 26.2615 81.3442 26.0342 81.7212 25.5796C82.0982 25.1196 82.2868 24.435 82.2868 23.5259C82.2868 22.5115 82.1038 21.7825 81.7378 21.3391C81.3719 20.8901 80.9034 20.6656 80.3322 20.6656C79.7778 20.6656 79.312 20.8873 78.935 21.3308C78.5635 21.7687 78.3777 22.4256 78.3777 23.3014Z" fill="white"/>
<path d="M88.6743 21.7715L86.5535 21.389C86.7919 20.5353 87.2022 19.9034 87.7844 19.4932C88.3666 19.083 89.2316 18.8779 90.3793 18.8779C91.4217 18.8779 92.198 19.0026 92.7081 19.2521C93.2182 19.496 93.5759 19.8092 93.781 20.1916C93.9917 20.5686 94.0971 21.2642 94.0971 22.2787L94.0721 25.0059C94.0721 25.782 94.1082 26.3557 94.1802 26.7271C94.2579 27.0929 94.3993 27.4865 94.6044 27.9078H92.2923C92.2313 27.7526 92.1564 27.5225 92.0677 27.2177C92.0289 27.0791 92.0012 26.9876 91.9845 26.9433C91.5853 27.3313 91.1584 27.6223 90.7037 27.8163C90.249 28.0103 89.7639 28.1073 89.2482 28.1073C88.3389 28.1073 87.6208 27.8607 87.0941 27.3673C86.5729 26.874 86.3123 26.2504 86.3123 25.4965C86.3123 24.9976 86.4315 24.5541 86.6699 24.1661C86.9083 23.7726 87.241 23.4732 87.6679 23.2681C88.1004 23.0575 88.7214 22.8746 89.531 22.7193C90.6233 22.5142 91.3801 22.323 91.8016 22.1456V21.9128C91.8016 21.4638 91.6907 21.1451 91.4689 20.9566C91.2471 20.7626 90.8284 20.6656 90.213 20.6656C89.7971 20.6656 89.4728 20.7487 89.2399 20.915C89.007 21.0758 88.8185 21.3613 88.6743 21.7715ZM91.8016 23.6672C91.5021 23.767 91.0281 23.8862 90.3793 24.0248C89.7306 24.1634 89.3064 24.2992 89.1068 24.4322C88.8018 24.6484 88.6494 24.9228 88.6494 25.2554C88.6494 25.5824 88.7714 25.8651 89.0153 26.1035C89.2593 26.3418 89.5698 26.461 89.9468 26.461C90.3682 26.461 90.7702 26.3224 91.1528 26.0453C91.4356 25.8346 91.6214 25.5769 91.7101 25.272C91.7711 25.0724 91.8016 24.6927 91.8016 24.1329V23.6672Z" fill="white"/>
<path d="M100.069 27.9078V24.1412C99.7638 24.1634 99.5503 24.2326 99.4284 24.349C99.3119 24.4599 99.104 24.7953 98.8046 25.3551L97.6901 27.9078H95.1783L96.4259 25.4715C97.058 24.252 97.715 23.5536 98.397 23.3762C97.8869 23.1822 97.496 22.6805 97.2243 21.8712C97.0192 21.267 96.8306 20.9067 96.6588 20.7903C96.4924 20.6684 96.0987 20.6074 95.4777 20.6074V19.0608C95.9379 19.0331 96.2595 19.0192 96.4425 19.0192C96.9582 19.0192 97.399 19.1329 97.7649 19.3602C98.1309 19.5874 98.4747 20.1528 98.7963 21.0564C99.0458 21.7604 99.2454 22.2066 99.3951 22.3951C99.5448 22.578 99.7694 22.675 100.069 22.6861V19.0775H102.389V22.6861C102.689 22.6861 102.913 22.5891 103.063 22.3951C103.218 22.2011 103.418 21.7548 103.662 21.0564C103.978 20.1639 104.313 19.6013 104.668 19.3685C105.029 19.1357 105.489 19.0192 106.049 19.0192C106.21 19.0192 106.52 19.0331 106.98 19.0608V20.6074C106.365 20.6074 105.971 20.6684 105.799 20.7903C105.627 20.9067 105.439 21.267 105.234 21.8712C104.962 22.6805 104.571 23.1822 104.061 23.3762C104.743 23.5536 105.4 24.252 106.032 25.4715L107.28 27.9078H104.768L103.662 25.3551C103.462 24.9006 103.276 24.5902 103.105 24.4239C102.938 24.2576 102.7 24.1634 102.389 24.1412V27.9078H100.069Z" fill="white"/>
</svg>
