<svg width="240" height="36" viewBox="0 0 240 36" fill="none" xmlns="http://www.w3.org/2000/svg">
<g clip-path="url(#clip0)">
<path d="M0.0654151 35.9003C-0.4249 35.4012 2.51699 32.6729 7.09326 31.4086C11.6695 30.1443 23.7313 29.9779 30.6938 30.6766C38.833 31.5084 61.747 35.9003 61.747 35.9003C61.747 35.9003 38.6042 32.9724 32.2301 32.5731C25.856 32.1738 16.9322 32.4733 10.0025 33.4714C3.03999 34.4696 0.55573 36.3994 0.0654151 35.9003Z" fill="url(#paint0_linear)"/>
<path d="M45.3379 25.0536C45.3379 25.0536 56.3209 29.4787 56.4517 29.3789C56.5824 29.2791 56.3536 25.6192 56.0594 24.9538C55.7979 24.2884 52.0715 20.1959 47.9856 16.3031C43.9323 12.3771 36.6103 6.122 36.6103 6.122V21.3604H35.5643V5.12384C35.5643 5.12384 28.5364 0.598891 27.4251 0.299445C26.3137 0 21.2798 -0.299445 18.0437 0.598891C14.8076 1.49723 12.8137 2.69501 11.833 3.69316C10.8524 4.69131 8.92384 8.08503 8.92384 8.08503C8.92384 8.08503 11.4408 5.58965 12.879 4.79113C15.1345 3.5268 17.7495 3.2939 19.2531 3.09427C20.4299 2.92791 25.4638 2.76155 25.4638 2.76155V11.3457C25.4638 11.3457 13.6309 11.7116 11.6369 12.0111C9.61028 12.3105 7.4529 12.8762 7.32215 13.1091C7.1914 13.3087 7.28946 17.9667 7.28946 17.9667C7.28946 17.9667 8.30278 17.6673 8.46622 17.8004C8.62965 17.9667 8.66234 18.8651 8.4989 19.0314C8.33546 19.1978 7.28946 19.2643 7.28946 19.2643C7.28946 19.2643 7.15871 23.756 7.28946 23.8558C7.42021 23.9889 12.5849 23.2237 15.9517 23.024C19.3185 22.8244 25.8234 22.8244 25.8234 22.8244V23.7227C25.8234 23.7227 19.3185 23.6229 15.919 23.8891C12.4868 24.1553 7.48559 24.7209 7.32215 24.7874C7.15871 24.8207 7.15871 25.5527 7.1914 26.817C7.22408 28.0813 7.1914 29.0129 7.32215 28.9797C7.48559 28.9464 13.5001 28.1811 16.965 28.0148C20.4299 27.8484 29.6805 28.3142 29.6805 28.3142C29.6805 28.3142 28.8306 25.7856 29.5497 24.2551C30.2689 22.7579 31.7071 22.1257 33.1454 22.1922C34.5836 22.2588 36.0546 22.9908 36.0219 23.1904C35.9892 23.39 33.7338 22.9242 33.1454 23.024C32.3936 23.1571 31.2168 23.7227 30.8899 25.4196C30.5631 27.1165 31.4783 28.1479 32.0994 28.4806C32.7531 28.8133 38.0485 28.8466 42.1999 29.3457C46.6127 29.878 50.5679 30.8096 50.5679 30.8096C50.5679 30.8096 50.143 30.0111 50.666 29.3789C51.2217 28.7468 52.3984 29.0462 52.3984 29.0462L52.4311 29.2458C52.4311 29.2458 51.81 29.3457 51.4832 29.878C51.1563 30.4104 51.4832 30.976 51.4832 30.976C51.4832 30.976 55.1115 31.8743 55.2422 31.7745C55.373 31.6747 55.3403 29.9113 55.2422 29.7782C55.1442 29.6451 45.3379 25.6192 45.3379 25.6192V25.0536ZM22.0316 21.2606C21.8682 21.3937 19.1878 21.3937 15.7229 21.6932C12.258 21.9593 10.3948 22.2921 10.1987 22.1257C10.0352 21.9593 10.0352 17.634 10.2313 17.4011C10.4602 17.1349 12.9444 16.6026 15.6248 16.3031C18.3052 16.037 21.8028 15.9704 22.0316 16.0702C22.2604 16.2033 22.2277 21.1275 22.0316 21.2606ZM25.9868 17.6007C25.6926 17.8004 23.9929 17.8669 23.8294 17.7671C23.666 17.6673 23.6333 16.5028 23.8294 16.3031C24.0255 16.1035 25.856 15.9704 25.9868 16.2033C26.1175 16.403 26.281 17.4011 25.9868 17.6007ZM32.6878 14.4067C32.4916 14.5065 27.5885 11.8115 27.3924 11.4787C27.1962 11.146 27.2289 3.061 27.3924 2.89464C27.5558 2.72828 32.5243 5.98891 32.6878 6.25508C32.8512 6.52126 32.8839 14.3068 32.6878 14.4067Z" fill="url(#paint1_linear)"/>
</g>
<path d="M78.5386 0.264783V3.21193H71.4598V17.0958H67.8857V0.264783H78.5386Z" fill="#120C5A"/>
<path d="M96.4433 8.65725C96.4433 11.4432 95.7515 13.5845 94.368 15.0811C92.9845 16.5777 91.0015 17.326 88.419 17.326C85.8365 17.326 83.8535 16.5777 82.47 15.0811C81.0865 13.5845 80.3948 11.4355 80.3948 8.63422C80.3948 5.8329 81.0865 3.69545 82.47 2.22187C83.8612 0.740624 85.8519 0 88.4421 0C91.0323 0 93.0114 0.744462 94.3796 2.23339C95.7554 3.72231 96.4433 5.8636 96.4433 8.65725ZM84.1417 8.65725C84.1417 10.5376 84.4991 11.9536 85.2139 12.9053C85.9287 13.857 86.9971 14.3328 88.419 14.3328C91.2706 14.3328 92.6963 12.441 92.6963 8.65725C92.6963 4.86586 91.2782 2.97017 88.4421 2.97017C87.0202 2.97017 85.948 3.44985 85.2255 4.40921C84.503 5.36089 84.1417 6.77691 84.1417 8.65725Z" fill="#120C5A"/>
<path d="M107.096 2.9932C105.751 2.9932 104.71 3.49974 103.972 4.51282C103.234 5.51823 102.865 6.92273 102.865 8.72632C102.865 12.4793 104.275 14.3558 107.096 14.3558C108.28 14.3558 109.713 14.0604 111.396 13.4694V16.4626C110.013 17.0382 108.468 17.326 106.762 17.326C104.31 17.326 102.435 16.5854 101.136 15.1041C99.8367 13.6152 99.1872 11.4816 99.1872 8.7033C99.1872 6.95343 99.5062 5.42229 100.144 4.10989C100.782 2.78981 101.697 1.78057 102.888 1.08216C104.087 0.376068 105.49 0.0230246 107.096 0.0230246C108.733 0.0230246 110.378 0.41828 112.031 1.20879L110.878 4.10989C110.247 3.81057 109.613 3.54962 108.975 3.32705C108.337 3.10448 107.711 2.9932 107.096 2.9932Z" fill="#120C5A"/>
<path d="M123.621 2.9932C122.276 2.9932 121.235 3.49974 120.497 4.51282C119.759 5.51823 119.39 6.92273 119.39 8.72632C119.39 12.4793 120.8 14.3558 123.621 14.3558C124.805 14.3558 126.238 14.0604 127.921 13.4694V16.4626C126.538 17.0382 124.993 17.326 123.287 17.326C120.835 17.326 118.96 16.5854 117.661 15.1041C116.362 13.6152 115.712 11.4816 115.712 8.7033C115.712 6.95343 116.031 5.42229 116.669 4.10989C117.307 2.78981 118.222 1.78057 119.413 1.08216C120.612 0.376068 122.015 0.0230246 123.621 0.0230246C125.258 0.0230246 126.903 0.41828 128.556 1.20879L127.403 4.10989C126.772 3.81057 126.138 3.54962 125.5 3.32705C124.862 3.10448 124.236 2.9932 123.621 2.9932Z" fill="#120C5A"/>
<path d="M144.858 17.0958H141.295V3.23496H135.093V17.0958H131.519V0.264783H144.858V17.0958Z" fill="#120C5A"/>
<path d="M158.819 17.0958H149.112V0.264783H158.819V3.18891H152.686V6.88435H158.393V9.80848H152.686V14.1486H158.819V17.0958Z" fill="#120C5A"/>
<path d="M175.686 14.2637H178.2V22H174.753V17.0958H162.347V0.264783H165.921V14.1256H172.124V0.264783H175.686V14.2637Z" fill="#120C5A"/>
<path d="M187.843 17.0958H184.269V3.23496H179.692V0.264783H192.421V3.23496H187.843V17.0958Z" fill="#120C5A"/>
<path d="M198.589 8.18524H199.765C200.864 8.18524 201.686 7.97035 202.232 7.54055C202.777 7.10309 203.05 6.46991 203.05 5.64103C203.05 4.80447 202.82 4.18664 202.359 3.78755C201.905 3.38845 201.19 3.18891 200.214 3.18891H198.589V8.18524ZM206.659 5.51439C206.659 7.32566 206.09 8.71097 204.953 9.67033C203.823 10.6297 202.213 11.1094 200.122 11.1094H198.589V17.0958H195.015V0.264783H200.399C202.443 0.264783 203.996 0.706088 205.056 1.5887C206.125 2.46363 206.659 3.7722 206.659 5.51439Z" fill="#120C5A"/>
<path d="M220.159 17.0958L218.937 13.0895H212.792L211.57 17.0958H207.72L213.669 0.195709H218.038L224.01 17.0958H220.159ZM218.084 10.0963C216.954 6.46607 216.316 4.41305 216.17 3.93721C216.032 3.46136 215.932 3.0853 215.871 2.809C215.617 3.79138 214.891 6.22048 213.692 10.0963H218.084Z" fill="#120C5A"/>
<path d="M239.886 17.0958H235.827L229.717 8.56515V17.0958H226.143V0.264783H229.717V8.41549L235.758 0.264783H239.563L233.418 8.34642L239.886 17.0958Z" fill="#120C5A"/>
<path d="M72.8116 27.3003V32.6471H71.3624V28.3955H69.4444V32.6471H68V27.3003H72.8116Z" fill="#120C5A"/>
<path d="M77.2348 32.7427C76.6129 32.7427 76.1251 32.5147 75.7715 32.0588H75.6957C75.7462 32.5052 75.7715 32.7634 75.7715 32.8336V35H74.327V27.3003H75.5015L75.7052 27.9938H75.7715C76.1093 27.4645 76.6097 27.1999 77.2727 27.1999C77.8978 27.1999 78.3872 27.4438 78.7408 27.9316C79.0944 28.4194 79.2712 29.0969 79.2712 29.9641C79.2712 30.5348 79.1876 31.0306 79.0202 31.4515C78.8561 31.8723 78.6208 32.1927 78.3146 32.4127C78.0084 32.6327 77.6484 32.7427 77.2348 32.7427ZM76.8086 28.3668C76.4518 28.3668 76.1914 28.4784 76.0272 28.7016C75.863 28.9216 75.7778 29.2866 75.7715 29.7967V29.9546C75.7715 30.5285 75.8551 30.9397 76.0225 31.1884C76.193 31.4371 76.4613 31.5615 76.8276 31.5615C77.4748 31.5615 77.7984 31.0226 77.7984 29.945C77.7984 29.4189 77.7179 29.0252 77.5569 28.7637C77.399 28.4991 77.1496 28.3668 76.8086 28.3668Z" fill="#120C5A"/>
<path d="M81.6155 29.9641C81.6155 30.4934 81.7007 30.8935 81.8712 31.1645C82.0448 31.4355 82.3258 31.571 82.7142 31.571C83.0994 31.571 83.3756 31.4371 83.5429 31.1693C83.7134 30.8983 83.7987 30.4966 83.7987 29.9641C83.7987 29.4349 83.7134 29.0379 83.5429 28.7733C83.3724 28.5087 83.093 28.3764 82.7047 28.3764C82.3195 28.3764 82.0417 28.5087 81.8712 28.7733C81.7007 29.0348 81.6155 29.4317 81.6155 29.9641ZM85.2762 29.9641C85.2762 30.8345 85.0489 31.5152 84.5943 32.0062C84.1397 32.4972 83.5066 32.7427 82.6952 32.7427C82.1869 32.7427 81.7386 32.6311 81.3503 32.4079C80.9619 32.1816 80.6636 31.858 80.4552 31.4371C80.2468 31.0163 80.1426 30.5253 80.1426 29.9641C80.1426 29.0905 80.3684 28.4114 80.8198 27.9268C81.2713 27.4422 81.9059 27.1999 82.7236 27.1999C83.232 27.1999 83.6803 27.3115 84.0686 27.5347C84.457 27.7579 84.7553 28.0783 84.9637 28.4959C85.1721 28.9136 85.2762 29.403 85.2762 29.9641Z" fill="#120C5A"/>
<path d="M89.7847 31.5806V28.3955H88.7002C88.6213 28.9885 88.5124 29.5513 88.3735 30.0837C88.2377 30.6161 88.0483 31.1151 87.8052 31.5806H89.7847ZM92.0058 34.5648H90.7082V32.6471H87.1469V34.5648H85.8493V31.5806H86.2944C86.5975 31.1055 86.8517 30.5061 87.0569 29.7824C87.2621 29.0587 87.4058 28.2313 87.4879 27.3003H91.2292V31.5806H92.0058V34.5648Z" fill="#120C5A"/>
<path d="M96.2728 32.6471L95.9934 31.9201H95.9555C95.7124 32.2294 95.4614 32.4446 95.2025 32.5658C94.9468 32.6837 94.6121 32.7427 94.1985 32.7427C93.6902 32.7427 93.2892 32.596 92.9956 32.3027C92.7052 32.0094 92.5599 31.5917 92.5599 31.0497C92.5599 30.4822 92.7557 30.0646 93.1472 29.7967C93.5418 29.5257 94.1354 29.3759 94.9278 29.3472L95.8466 29.3185V29.0842C95.8466 28.5422 95.5719 28.2712 95.0225 28.2712C94.5995 28.2712 94.1022 28.4003 93.5308 28.6585L93.0525 27.6734C93.6618 27.3513 94.3374 27.1903 95.0794 27.1903C95.7898 27.1903 96.3344 27.3466 96.7132 27.659C97.0921 27.9715 97.2815 28.4465 97.2815 29.0842V32.6471H96.2728ZM95.8466 30.1698L95.2878 30.1889C94.8678 30.2017 94.5553 30.2782 94.3501 30.4185C94.1448 30.5587 94.0422 30.7724 94.0422 31.0593C94.0422 31.4706 94.2759 31.6762 94.7431 31.6762C95.0778 31.6762 95.3446 31.579 95.5435 31.3845C95.7456 31.19 95.8466 30.9318 95.8466 30.6098V30.1698Z" fill="#120C5A"/>
<path d="M101.577 29.8972V27.3003H102.922V29.8972L104.807 27.3003H106.299L104.347 29.8637L106.483 32.6471H104.939L102.922 29.9354V32.6471H101.577V29.9354L99.5595 32.6471H98.0156L100.151 29.8637L98.2003 27.3003H99.6921L101.577 29.8972Z" fill="#120C5A"/>
<path d="M111.91 32.7427C110.262 32.7427 109.438 31.8293 109.438 30.0024C109.438 29.0937 109.663 28.4003 110.111 27.922C110.559 27.4406 111.202 27.1999 112.038 27.1999C112.651 27.1999 113.2 27.3211 113.686 27.5634L113.26 28.692C113.033 28.5996 112.821 28.5246 112.626 28.4672C112.43 28.4067 112.234 28.3764 112.038 28.3764C111.287 28.3764 110.911 28.9152 110.911 29.9928C110.911 31.0386 111.287 31.5615 112.038 31.5615C112.316 31.5615 112.573 31.5248 112.81 31.4515C113.047 31.3749 113.284 31.257 113.521 31.0976V32.3458C113.287 32.4956 113.05 32.5992 112.81 32.6566C112.573 32.714 112.274 32.7427 111.91 32.7427Z" fill="#120C5A"/>
<path d="M119.564 27.3003V32.6471H118.114V28.3955H116.196V32.6471H114.752V27.3003H119.564Z" fill="#120C5A"/>
<path d="M123.272 28.2377C122.965 28.2377 122.725 28.3365 122.552 28.5342C122.378 28.7287 122.279 29.0061 122.253 29.3663H124.28C124.274 29.0061 124.181 28.7287 124.001 28.5342C123.821 28.3365 123.578 28.2377 123.272 28.2377ZM123.475 32.7427C122.623 32.7427 121.957 32.5052 121.477 32.0301C120.997 31.5551 120.757 30.8824 120.757 30.012C120.757 29.1161 120.978 28.4242 121.42 27.9364C121.865 27.4454 122.479 27.1999 123.262 27.1999C124.01 27.1999 124.593 27.4151 125.01 27.8455C125.426 28.2759 125.635 28.8706 125.635 29.6294V30.3372H122.22C122.236 30.7516 122.358 31.0752 122.585 31.308C122.812 31.5407 123.131 31.6571 123.542 31.6571C123.86 31.6571 124.162 31.6236 124.446 31.5567C124.73 31.4897 125.027 31.3829 125.336 31.2363V32.3649C125.084 32.4924 124.814 32.5865 124.527 32.6471C124.239 32.7108 123.889 32.7427 123.475 32.7427Z" fill="#120C5A"/>
<path d="M131.815 31.5806H132.587V34.5648H131.289V32.6471H126.809V27.3003H128.254V31.5519H130.366V27.3003H131.815V31.5806Z" fill="#120C5A"/>
<path d="M137.867 27.3003V28.3955H136.134V32.6471H134.69V28.3955H132.952V27.3003H137.867Z" fill="#120C5A"/>
<path d="M141.05 28.2377C140.744 28.2377 140.504 28.3365 140.33 28.5342C140.156 28.7287 140.057 29.0061 140.032 29.3663H142.059C142.052 29.0061 141.959 28.7287 141.779 28.5342C141.599 28.3365 141.356 28.2377 141.05 28.2377ZM141.254 32.7427C140.401 32.7427 139.735 32.5052 139.255 32.0301C138.775 31.5551 138.535 30.8824 138.535 30.012C138.535 29.1161 138.756 28.4242 139.198 27.9364C139.643 27.4454 140.257 27.1999 141.04 27.1999C141.789 27.1999 142.371 27.4151 142.788 27.8455C143.205 28.2759 143.413 28.8706 143.413 29.6294V30.3372H139.999C140.014 30.7516 140.136 31.0752 140.363 31.308C140.591 31.5407 140.909 31.6571 141.32 31.6571C141.639 31.6571 141.94 31.6236 142.224 31.5567C142.509 31.4897 142.805 31.3829 143.115 31.2363V32.3649C142.862 32.4924 142.592 32.5865 142.305 32.6471C142.018 32.7108 141.667 32.7427 141.254 32.7427Z" fill="#120C5A"/>
<path d="M145.672 29.9163L143.967 27.3003H145.606L146.633 29.0029L147.671 27.3003H149.309L147.585 29.9163L149.39 32.6471H147.746L146.633 30.8154L145.516 32.6471H143.877L145.672 29.9163Z" fill="#120C5A"/>
<path d="M151.639 27.3003V29.3568H153.657V27.3003H155.101V32.6471H153.657V30.4424H151.639V32.6471H150.195V27.3003H151.639Z" fill="#120C5A"/>
<path d="M158.014 27.3003V29.4142C158.014 29.6373 157.977 30.1825 157.905 31.0497L160.348 27.3003H162.086V32.6471H160.689V30.5141C160.689 30.1347 160.721 29.5991 160.784 28.9072L158.35 32.6471H156.617V27.3003H158.014Z" fill="#120C5A"/>
<path d="M167.078 27.3003H168.669L166.571 29.8637L168.854 32.6471H167.215L165.051 29.9354V32.6471H163.607V27.3003H165.051V29.8972L167.078 27.3003Z" fill="#120C5A"/>
<path d="M171.009 27.3003V29.4142C171.009 29.6373 170.972 30.1825 170.9 31.0497L173.343 27.3003H175.081V32.6471H173.684V30.5141C173.684 30.1347 173.716 29.5991 173.779 28.9072L171.345 32.6471H169.612V27.3003H171.009Z" fill="#120C5A"/>
<path d="M180.518 27.3003V29.4142C180.518 29.6373 180.482 30.1825 180.409 31.0497L182.853 27.3003H184.591V32.6471H183.194V30.5141C183.194 30.1347 183.225 29.5991 183.289 28.9072L180.854 32.6471H179.121V27.3003H180.518Z" fill="#120C5A"/>
<path d="M189.947 29.3568C190.493 29.3568 190.88 29.3121 191.107 29.2229C191.338 29.1336 191.453 28.9917 191.453 28.7972C191.453 28.6251 191.37 28.4959 191.202 28.4099C191.035 28.3238 190.759 28.2807 190.373 28.2807C190.13 28.2807 189.854 28.311 189.545 28.3716C189.238 28.4322 188.959 28.5151 188.706 28.6203L188.28 27.6016C188.656 27.4582 189.021 27.3561 189.374 27.2956C189.728 27.2318 190.122 27.1999 190.558 27.1999C191.218 27.1999 191.747 27.3274 192.145 27.5825C192.542 27.8376 192.741 28.1835 192.741 28.6203C192.741 29.2229 192.389 29.615 191.685 29.7967V29.8446C192.118 29.953 192.426 30.1076 192.609 30.3085C192.795 30.5061 192.888 30.766 192.888 31.088C192.888 31.4132 192.784 31.7017 192.576 31.9536C192.367 32.2055 192.066 32.4 191.671 32.5371C191.276 32.6742 190.812 32.7427 190.279 32.7427C189.395 32.7427 188.716 32.6327 188.242 32.4127V31.2076C188.514 31.3351 188.811 31.4355 189.133 31.5088C189.458 31.5822 189.772 31.6188 190.075 31.6188C190.545 31.6188 190.898 31.5662 191.131 31.461C191.365 31.3526 191.482 31.1996 191.482 31.0019C191.482 30.7851 191.358 30.6257 191.112 30.5237C190.866 30.4185 190.487 30.3659 189.976 30.3659H189.417V29.3568H189.947Z" fill="#120C5A"/>
<path d="M197.382 32.6471L197.103 31.9201H197.065C196.822 32.2294 196.571 32.4446 196.312 32.5658C196.056 32.6837 195.722 32.7427 195.308 32.7427C194.8 32.7427 194.399 32.596 194.105 32.3027C193.815 32.0094 193.67 31.5917 193.67 31.0497C193.67 30.4822 193.865 30.0646 194.257 29.7967C194.651 29.5257 195.245 29.3759 196.037 29.3472L196.956 29.3185V29.0842C196.956 28.5422 196.682 28.2712 196.132 28.2712C195.709 28.2712 195.212 28.4003 194.64 28.6585L194.162 27.6734C194.771 27.3513 195.447 27.1903 196.189 27.1903C196.899 27.1903 197.444 27.3466 197.823 27.659C198.202 27.9715 198.391 28.4465 198.391 29.0842V32.6471H197.382ZM196.956 30.1698L196.397 30.1889C195.977 30.2017 195.665 30.2782 195.46 30.4185C195.254 30.5587 195.152 30.7724 195.152 31.0593C195.152 31.4706 195.385 31.6762 195.853 31.6762C196.187 31.6762 196.454 31.579 196.653 31.3845C196.855 31.19 196.956 30.9318 196.956 30.6098V30.1698Z" fill="#120C5A"/>
<path d="M204.695 27.3003V32.6471H203.245V28.3955H201.327V32.6471H199.883V27.3003H204.695Z" fill="#120C5A"/>
<path d="M207.479 27.3003V29.2563C207.479 29.7218 207.692 29.9546 208.118 29.9546C208.396 29.9546 208.654 29.9227 208.89 29.8589C209.13 29.7952 209.372 29.7123 209.615 29.6102V27.3003H211.059V32.6471H209.615V30.5237C209.28 30.7022 208.969 30.8282 208.682 30.9015C208.395 30.9748 208.117 31.0115 207.849 31.0115C207.271 31.0115 206.824 30.8632 206.508 30.5667C206.193 30.267 206.035 29.8414 206.035 29.2898V27.3003H207.479Z" fill="#120C5A"/>
<path d="M215.937 32.6471L215.658 31.9201H215.62C215.377 32.2294 215.126 32.4446 214.867 32.5658C214.611 32.6837 214.277 32.7427 213.863 32.7427C213.355 32.7427 212.954 32.596 212.66 32.3027C212.37 32.0094 212.224 31.5917 212.224 31.0497C212.224 30.4822 212.42 30.0646 212.812 29.7967C213.206 29.5257 213.8 29.3759 214.592 29.3472L215.511 29.3185V29.0842C215.511 28.5422 215.236 28.2712 214.687 28.2712C214.264 28.2712 213.767 28.4003 213.195 28.6585L212.717 27.6734C213.326 27.3513 214.002 27.1903 214.744 27.1903C215.454 27.1903 215.999 27.3466 216.378 27.659C216.757 27.9715 216.946 28.4465 216.946 29.0842V32.6471H215.937ZM215.511 30.1698L214.952 30.1889C214.532 30.2017 214.22 30.2782 214.015 30.4185C213.809 30.5587 213.707 30.7724 213.707 31.0593C213.707 31.4706 213.94 31.6762 214.408 31.6762C214.742 31.6762 215.009 31.579 215.208 31.3845C215.41 31.19 215.511 30.9318 215.511 30.6098V30.1698Z" fill="#120C5A"/>
<path d="M220.588 32.7427C218.94 32.7427 218.116 31.8293 218.116 30.0024C218.116 29.0937 218.34 28.4003 218.788 27.922C219.237 27.4406 219.879 27.1999 220.716 27.1999C221.328 27.1999 221.878 27.3211 222.364 27.5634L221.938 28.692C221.71 28.5996 221.499 28.5246 221.303 28.4672C221.107 28.4067 220.912 28.3764 220.716 28.3764C219.964 28.3764 219.589 28.9152 219.589 29.9928C219.589 31.0386 219.964 31.5615 220.716 31.5615C220.994 31.5615 221.251 31.5248 221.488 31.4515C221.724 31.3749 221.961 31.257 222.198 31.0976V32.3458C221.964 32.4956 221.728 32.5992 221.488 32.6566C221.251 32.714 220.951 32.7427 220.588 32.7427Z" fill="#120C5A"/>
<path d="M227.81 27.3003V28.3955H226.077V32.6471H224.632V28.3955H222.894V27.3003H227.81Z" fill="#120C5A"/>
<path d="M230.992 28.2377C230.686 28.2377 230.446 28.3365 230.273 28.5342C230.099 28.7287 230 29.0061 229.974 29.3663H232.001C231.995 29.0061 231.902 28.7287 231.722 28.5342C231.542 28.3365 231.299 28.2377 230.992 28.2377ZM231.196 32.7427C230.344 32.7427 229.678 32.5052 229.198 32.0301C228.718 31.5551 228.478 30.8824 228.478 30.012C228.478 29.1161 228.699 28.4242 229.141 27.9364C229.586 27.4454 230.2 27.1999 230.983 27.1999C231.731 27.1999 232.314 27.4151 232.731 27.8455C233.147 28.2759 233.356 28.8706 233.356 29.6294V30.3372H229.941C229.957 30.7516 230.078 31.0752 230.306 31.308C230.533 31.5407 230.852 31.6571 231.262 31.6571C231.581 31.6571 231.883 31.6236 232.167 31.5567C232.451 31.4897 232.748 31.3829 233.057 31.2363V32.3649C232.805 32.4924 232.535 32.5865 232.247 32.6471C231.96 32.7108 231.61 32.7427 231.196 32.7427Z" fill="#120C5A"/>
<path d="M235.927 27.3003V29.4142C235.927 29.6373 235.891 30.1825 235.818 31.0497L238.262 27.3003H240V32.6471H238.603V30.5141C238.603 30.1347 238.635 29.5991 238.698 28.9072L236.263 32.6471H234.53V27.3003H235.927ZM239.574 25C239.514 25.5962 239.291 26.0314 238.906 26.3056C238.521 26.5766 237.965 26.7121 237.239 26.7121C236.491 26.7121 235.937 26.5814 235.577 26.3199C235.22 26.0585 235.02 25.6185 234.975 25H236.268C236.29 25.3284 236.371 25.5595 236.51 25.6934C236.652 25.8242 236.904 25.8895 237.267 25.8895C237.586 25.8895 237.823 25.8178 237.978 25.6743C238.136 25.5277 238.232 25.3029 238.267 25H239.574Z" fill="#120C5A"/>
<defs>
<linearGradient id="paint0_linear" x1="64.2859" y1="32.9143" x2="6.68588" y2="-2.0571" gradientUnits="userSpaceOnUse">
<stop stop-color="#0E0639"/>
<stop offset="1" stop-color="#1D0B7A"/>
</linearGradient>
<linearGradient id="paint1_linear" x1="18.5147" y1="-2.92616e-07" x2="61.2004" y2="37.0286" gradientUnits="userSpaceOnUse">
<stop stop-color="#FF3A39"/>
<stop offset="1" stop-color="#FE0100"/>
</linearGradient>
<clipPath id="clip0">
<rect width="61.7143" height="36" fill="white"/>
</clipPath>
</defs>
</svg>
