<svg width="35" height="20" viewBox="0 0 35 20" fill="none" xmlns="http://www.w3.org/2000/svg">
<g clip-path="url(#clip0)">
<path d="M0.0363959 19.9447C-0.236001 19.6674 1.39838 18.1517 3.94075 17.4493C6.48313 16.7469 13.1841 16.6545 17.0521 17.0427C21.5739 17.5048 34.304 19.9447 34.304 19.9447C34.304 19.9447 21.4468 18.3181 17.9056 18.0963C14.3645 17.8745 9.40686 18.0408 5.55698 18.5954C1.68894 19.1499 0.308793 20.222 0.0363959 19.9447Z" fill="white"/>
<path d="M25.1873 13.9187C25.1873 13.9187 31.289 16.3771 31.3617 16.3216C31.4343 16.2662 31.3072 14.2329 31.1438 13.8632C30.9985 13.4935 28.9283 11.22 26.6583 9.0573C24.4065 6.87616 20.3387 3.40111 20.3387 3.40111V11.8669H19.7576V2.84658C19.7576 2.84658 15.8532 0.332717 15.2358 0.166359C14.6183 0 11.8217 -0.166359 10.0239 0.332717C8.22608 0.831793 7.11833 1.49723 6.57353 2.05176C6.02874 2.60628 4.95731 4.49168 4.95731 4.49168C4.95731 4.49168 6.35562 3.10536 7.15465 2.66174C8.40767 1.95933 9.86046 1.82994 10.6958 1.71904C11.3496 1.62662 14.1462 1.5342 14.1462 1.5342V6.30314C14.1462 6.30314 7.57232 6.50647 6.46457 6.67283C5.33867 6.83919 4.14012 7.15342 4.06748 7.28281C3.99484 7.39372 4.04932 9.98152 4.04932 9.98152C4.04932 9.98152 4.61227 9.81516 4.70307 9.8891C4.79387 9.98152 4.81203 10.4806 4.72123 10.573C4.63043 10.6654 4.04932 10.7024 4.04932 10.7024C4.04932 10.7024 3.97668 13.1978 4.04932 13.2532C4.12196 13.3272 6.99121 12.902 8.86167 12.7911C10.7321 12.6802 14.3459 12.6802 14.3459 12.6802V13.1793C14.3459 13.1793 10.7321 13.1238 8.84351 13.2717C6.93673 13.4196 4.15828 13.7338 4.06748 13.7708C3.97668 13.7893 3.97668 14.1959 3.99484 14.8983C4.013 15.6007 3.99484 16.1183 4.06748 16.0998C4.15828 16.0813 7.49968 15.6562 9.42462 15.5638C11.3496 15.4713 16.4888 15.7301 16.4888 15.7301C16.4888 15.7301 16.0166 14.3253 16.4161 13.475C16.8157 12.6433 17.6147 12.2921 18.4137 12.329C19.2128 12.366 20.0299 12.7726 20.0118 12.8835C19.9936 12.9945 18.7406 12.7357 18.4137 12.7911C17.9961 12.8651 17.3423 13.1793 17.1607 14.122C16.9791 15.0647 17.4876 15.6377 17.8326 15.8226C18.1958 16.0074 21.1377 16.0259 23.444 16.3031C25.8956 16.5989 28.0929 17.1165 28.0929 17.1165C28.0929 17.1165 27.8568 16.6728 28.1474 16.3216C28.4561 15.9704 29.1099 16.1368 29.1099 16.1368L29.128 16.2477C29.128 16.2477 28.783 16.3031 28.6014 16.5989C28.4198 16.8946 28.6014 17.2089 28.6014 17.2089C28.6014 17.2089 30.6171 17.708 30.6898 17.6525C30.7624 17.597 30.7442 16.6174 30.6898 16.5434C30.6353 16.4695 25.1873 14.2329 25.1873 14.2329V13.9187ZM12.2394 11.8115C12.1486 11.8854 10.6595 11.8854 8.73455 12.0518C6.80961 12.1996 5.7745 12.3845 5.66554 12.2921C5.57474 12.1996 5.57474 9.79667 5.6837 9.66728C5.81082 9.51941 7.19097 9.22366 8.68007 9.0573C10.1692 8.90943 12.1123 8.87246 12.2394 8.92791C12.3665 9.00185 12.3484 11.7375 12.2394 11.8115ZM14.4367 9.77819C14.2733 9.8891 13.329 9.92606 13.2382 9.87061C13.1474 9.81516 13.1292 9.16821 13.2382 9.0573C13.3471 8.9464 14.3641 8.87246 14.4367 9.00185C14.5094 9.11275 14.6002 9.66728 14.4367 9.77819ZM18.1595 8.0037C18.0505 8.05915 15.3266 6.56192 15.2176 6.37708C15.1086 6.19224 15.1268 1.70055 15.2176 1.60813C15.3084 1.51571 18.0687 3.32717 18.1595 3.47505C18.2503 3.62292 18.2684 7.94824 18.1595 8.0037Z" fill="white"/>
</g>
<defs>
<clipPath id="clip0">
<rect width="34.2857" height="20" fill="white"/>
</clipPath>
</defs>
</svg>
