<svg width="287" height="43" viewBox="0 0 287 43" fill="none" xmlns="http://www.w3.org/2000/svg">
<g clip-path="url(#clip0)">
<path d="M0.0779583 42.8808C-0.507696 42.2847 3.00623 39.0259 8.47233 37.5157C13.9384 36.0056 28.3455 35.8068 36.6618 36.6414C46.3837 37.6349 73.7532 42.8808 73.7532 42.8808C73.7532 42.8808 46.1104 39.3836 38.4969 38.9067C30.8834 38.4298 20.2245 38.7874 11.9472 39.9797C3.63092 41.1719 0.663612 43.4769 0.0779583 42.8808Z" fill="white"/>
<path d="M54.1534 29.9251C54.1534 29.9251 67.272 35.2107 67.4282 35.0915C67.5844 34.9723 67.3111 30.6007 66.9597 29.8059C66.6473 29.0111 62.1963 24.1229 57.3159 19.4732C52.4745 14.7837 43.7287 7.31238 43.7287 7.31238V25.5139H42.4793V6.12015C42.4793 6.12015 34.085 0.715342 32.7575 0.357671C31.43 0 25.4173 -0.357671 21.552 0.715342C17.6867 1.78835 15.305 3.21904 14.1337 4.41128C12.9624 5.60351 10.6588 9.65712 10.6588 9.65712C10.6588 9.65712 13.6652 6.67653 15.3831 5.72274C18.0771 4.21257 21.2006 3.93438 22.9966 3.69593C24.4021 3.49723 30.4149 3.29852 30.4149 3.29852V13.5518C30.4149 13.5518 16.2811 13.9889 13.8994 14.3466C11.4787 14.7043 8.90184 15.3799 8.74567 15.658C8.58949 15.8965 8.70662 21.4603 8.70662 21.4603C8.70662 21.4603 9.91698 21.1026 10.1122 21.2616C10.3074 21.4603 10.3465 22.5333 10.1512 22.732C9.95602 22.9307 8.70662 23.0102 8.70662 23.0102C8.70662 23.0102 8.55045 28.3752 8.70662 28.4945C8.8628 28.6534 15.0317 27.7394 19.0532 27.5009C23.0747 27.2625 30.8443 27.2625 30.8443 27.2625V28.3355C30.8443 28.3355 23.0747 28.2163 19.0141 28.5342C14.9146 28.8521 8.94089 29.5277 8.74567 29.6072C8.55045 29.647 8.55045 30.5213 8.58949 32.0314C8.62854 33.5416 8.58949 34.6543 8.74567 34.6146C8.94089 34.5749 16.1249 33.6608 20.2635 33.4621C24.4021 33.2634 35.4515 33.8198 35.4515 33.8198C35.4515 33.8198 34.4363 30.7994 35.2953 28.9714C36.1543 27.183 37.8722 26.4279 39.5901 26.5074C41.308 26.5869 43.065 27.4612 43.0259 27.6996C42.9869 27.9381 40.2929 27.3817 39.5901 27.5009C38.6921 27.6599 37.2865 28.3355 36.8961 30.3623C36.5057 32.3891 37.5989 33.6211 38.3407 34.0185C39.1216 34.4159 45.4466 34.4556 50.4052 35.0518C55.6761 35.6876 60.4003 36.8004 60.4003 36.8004C60.4003 36.8004 59.8928 35.8466 60.5175 35.0915C61.1812 34.3364 62.5868 34.6941 62.5868 34.6941L62.6258 34.9325C62.6258 34.9325 61.884 35.0518 61.4936 35.6876C61.1031 36.3235 61.4936 36.9991 61.4936 36.9991C61.4936 36.9991 65.8274 38.0721 65.9836 37.9529C66.1397 37.8336 66.1007 35.7274 65.9836 35.5684C65.8664 35.4094 54.1534 30.6007 54.1534 30.6007V29.9251ZM26.3153 25.3946C26.1201 25.5536 22.9185 25.5536 18.7799 25.9113C14.6412 26.2292 12.4158 26.6266 12.1815 26.4279C11.9863 26.2292 11.9863 21.0628 12.2205 20.7847C12.4939 20.4667 15.4612 19.8309 18.6627 19.4732C21.8643 19.1553 26.042 19.0758 26.3153 19.195C26.5886 19.354 26.5495 25.2357 26.3153 25.3946ZM31.0396 21.0231C30.6882 21.2616 28.6579 21.341 28.4627 21.2218C28.2675 21.1026 28.2284 19.7116 28.4627 19.4732C28.6969 19.2348 30.8834 19.0758 31.0396 19.354C31.1957 19.5924 31.3909 20.7847 31.0396 21.0231ZM39.0435 17.2079C38.8092 17.3272 32.9527 14.1081 32.7184 13.7107C32.4842 13.3133 32.5232 3.65619 32.7184 3.45749C32.9137 3.25878 38.8483 7.15342 39.0435 7.47135C39.2387 7.78928 39.2778 17.0887 39.0435 17.2079Z" fill="white"/>
</g>
<path d="M93.81 0.316268V3.83647H85.3547V20.4199H81.0857V0.316268H93.81Z" fill="white"/>
<path d="M115.196 10.3406C115.196 13.6683 114.37 16.2259 112.717 18.0135C111.065 19.8012 108.696 20.695 105.612 20.695C102.527 20.695 100.158 19.8012 98.5058 18.0135C96.8533 16.2259 96.0271 13.6591 96.0271 10.3131C96.0271 6.96707 96.8533 4.41401 98.5058 2.6539C100.167 0.884635 102.545 0 105.639 0C108.733 0 111.097 0.889218 112.731 2.66765C114.374 4.44609 115.196 7.00374 115.196 10.3406ZM100.503 10.3406C100.503 12.5866 100.929 14.2779 101.783 15.4146C102.637 16.5514 103.913 17.1197 105.612 17.1197C109.018 17.1197 110.721 14.86 110.721 10.3406C110.721 5.81201 109.027 3.54771 105.639 3.54771C103.941 3.54771 102.66 4.12066 101.797 5.26656C100.934 6.40329 100.503 8.09464 100.503 10.3406Z" fill="white"/>
<path d="M127.92 3.57521C126.314 3.57521 125.07 4.18024 124.188 5.39031C123.307 6.59122 122.866 8.26882 122.866 10.4231C122.866 14.9059 124.551 17.1472 127.92 17.1472C129.334 17.1472 131.046 16.7943 133.057 16.0884V19.6636C131.404 20.3512 129.559 20.695 127.521 20.695C124.592 20.695 122.352 19.8103 120.801 18.041C119.249 16.2626 118.474 13.7141 118.474 10.3956C118.474 8.30548 118.855 6.47663 119.617 4.90904C120.378 3.33228 121.471 2.12679 122.894 1.29258C124.326 0.449193 126.002 0.0275016 127.92 0.0275016C129.876 0.0275016 131.84 0.499612 133.814 1.44383L132.437 4.90904C131.684 4.55151 130.927 4.23983 130.165 3.97398C129.403 3.70813 128.655 3.57521 127.92 3.57521Z" fill="white"/>
<path d="M147.659 3.57521C146.052 3.57521 144.808 4.18024 143.927 5.39031C143.045 6.59122 142.605 8.26882 142.605 10.4231C142.605 14.9059 144.289 17.1472 147.659 17.1472C149.072 17.1472 150.785 16.7943 152.795 16.0884V19.6636C151.143 20.3512 149.297 20.695 147.259 20.695C144.331 20.695 142.091 19.8103 140.539 18.041C138.988 16.2626 138.212 13.7141 138.212 10.3956C138.212 8.30548 138.593 6.47663 139.355 4.90904C140.117 3.33228 141.209 2.12679 142.632 1.29258C144.064 0.449193 145.74 0.0275016 147.659 0.0275016C149.614 0.0275016 151.579 0.499612 153.552 1.44383L152.175 4.90904C151.423 4.55151 150.665 4.23983 149.903 3.97398C149.141 3.70813 148.393 3.57521 147.659 3.57521Z" fill="white"/>
<path d="M173.024 20.4199H168.769V3.86397H161.361V20.4199H157.092V0.316268H173.024V20.4199Z" fill="white"/>
<path d="M189.701 20.4199H178.106V0.316268H189.701V3.80897H182.375V8.22298H189.191V11.7157H182.375V16.8997H189.701V20.4199Z" fill="white"/>
<path d="M209.848 17.0372H212.85V26.2778H208.732V20.4199H193.915V0.316268H198.184V16.8722H205.592V0.316268H209.848V17.0372Z" fill="white"/>
<path d="M224.369 20.4199H220.1V3.86397H214.633V0.316268H229.836V3.86397H224.369V20.4199Z" fill="white"/>
<path d="M237.203 9.77682H238.608C239.92 9.77682 240.903 9.52014 241.555 9.00677C242.206 8.48424 242.532 7.72795 242.532 6.73789C242.532 5.73867 242.257 5.00071 241.706 4.52401C241.164 4.04732 240.311 3.80897 239.145 3.80897H237.203V9.77682ZM246.843 6.58663C246.843 8.75009 246.163 10.4048 244.804 11.5507C243.455 12.6966 241.532 13.2695 239.034 13.2695H237.203V20.4199H232.934V0.316268H239.365C241.807 0.316268 243.661 0.843383 244.928 1.89761C246.205 2.94267 246.843 4.50568 246.843 6.58663Z" fill="white"/>
<path d="M262.968 20.4199L261.509 15.6347H254.169L252.709 20.4199H248.109L255.215 0.233764H260.434L267.568 20.4199H262.968ZM260.489 12.0595C259.14 7.72337 258.378 5.27114 258.204 4.70277C258.038 4.13441 257.919 3.68521 257.845 3.3552C257.543 4.5286 256.675 7.43002 255.243 12.0595H260.489Z" fill="white"/>
<path d="M286.53 20.4199H281.683L274.384 10.2306V20.4199H270.115V0.316268H274.384V10.0518L281.6 0.316268H286.145L278.805 9.96933L286.53 20.4199Z" fill="white"/>
<path d="M86.9693 32.609V38.9953H85.2384V33.9171H82.9475V38.9953H81.2222V32.609H86.9693Z" fill="white"/>
<path d="M92.2527 39.1096C91.5098 39.1096 90.9271 38.8373 90.5048 38.2927H90.4142C90.4746 38.8259 90.5048 39.1343 90.5048 39.2181V41.8058H88.7795V32.609H90.1823L90.4256 33.4372H90.5048C90.9083 32.8051 91.506 32.489 92.2979 32.489C93.0446 32.489 93.6291 32.7803 94.0515 33.363C94.4739 33.9456 94.685 34.7549 94.685 35.7907C94.685 36.4724 94.5851 37.0646 94.3852 37.5672C94.1891 38.0699 93.9082 38.4526 93.5424 38.7154C93.1766 38.9782 92.7467 39.1096 92.2527 39.1096ZM91.7436 33.8828C91.3174 33.8828 91.0063 34.0161 90.8102 34.2827C90.6141 34.5454 90.5123 34.9815 90.5048 35.5908V35.7793C90.5048 36.4648 90.6047 36.956 90.8046 37.2531C91.0082 37.5501 91.3287 37.6986 91.7662 37.6986C92.5393 37.6986 92.9258 37.055 92.9258 35.7679C92.9258 35.1395 92.8296 34.6692 92.6373 34.3569C92.4488 34.0408 92.1508 33.8828 91.7436 33.8828Z" fill="white"/>
<path d="M97.4851 35.7907C97.4851 36.4229 97.5869 36.9008 97.7905 37.2245C97.998 37.5482 98.3336 37.71 98.7974 37.71C99.2575 37.71 99.5875 37.5501 99.7873 37.2302C99.991 36.9065 100.093 36.4267 100.093 35.7907C100.093 35.1585 99.991 34.6844 99.7873 34.3683C99.5837 34.0523 99.25 33.8942 98.7861 33.8942C98.326 33.8942 97.9942 34.0523 97.7905 34.3683C97.5869 34.6806 97.4851 35.1547 97.4851 35.7907ZM101.858 35.7907C101.858 36.8303 101.586 37.6434 101.043 38.2299C100.5 38.8163 99.744 39.1096 98.7748 39.1096C98.1677 39.1096 97.6322 38.9763 97.1683 38.7097C96.7045 38.4393 96.3481 38.0528 96.0992 37.5501C95.8503 37.0474 95.7259 36.461 95.7259 35.7907C95.7259 34.7473 95.9955 33.9361 96.5348 33.3573C97.074 32.7784 97.832 32.489 98.8087 32.489C99.4159 32.489 99.9514 32.6223 100.415 32.8889C100.879 33.1554 101.235 33.5382 101.484 34.037C101.733 34.5359 101.858 35.1205 101.858 35.7907Z" fill="white"/>
<path d="M107.243 37.7215V33.9171H105.947C105.853 34.6254 105.723 35.2975 105.557 35.9335C105.395 36.5695 105.169 37.1655 104.878 37.7215H107.243ZM109.896 41.286H108.346V38.9953H104.092V41.286H102.542V37.7215H103.074C103.436 37.154 103.739 36.4381 103.985 35.5736C104.23 34.7092 104.401 33.7209 104.499 32.609H108.968V37.7215H109.896V41.286Z" fill="white"/>
<path d="M114.992 38.9953L114.659 38.127H114.613C114.323 38.4964 114.023 38.7535 113.714 38.8982C113.409 39.0391 113.009 39.1096 112.515 39.1096C111.908 39.1096 111.429 38.9344 111.078 38.584C110.731 38.2337 110.558 37.7348 110.558 37.0874C110.558 36.4095 110.791 35.9107 111.259 35.5908C111.73 35.2671 112.439 35.0881 113.386 35.0538L114.483 35.0195V34.7396C114.483 34.0922 114.155 33.7685 113.499 33.7685C112.994 33.7685 112.4 33.9228 111.717 34.2312L111.146 33.0545C111.874 32.6699 112.681 32.4776 113.567 32.4776C114.415 32.4776 115.066 32.6642 115.519 33.0374C115.971 33.4106 116.197 33.978 116.197 34.7396V38.9953H114.992ZM114.483 36.0363L113.816 36.0592C113.314 36.0744 112.941 36.1658 112.696 36.3334C112.451 36.5009 112.328 36.7561 112.328 37.0988C112.328 37.5901 112.607 37.8357 113.165 37.8357C113.565 37.8357 113.884 37.7196 114.121 37.4873C114.363 37.255 114.483 36.9465 114.483 36.5619V36.0363Z" fill="white"/>
<path d="M121.328 35.7107V32.609H122.934V35.7107L125.186 32.609H126.968L124.637 35.6707L127.188 38.9953H125.344L122.934 35.7564V38.9953H121.328V35.7564L118.918 38.9953H117.074L119.625 35.6707L117.295 32.609H119.077L121.328 35.7107Z" fill="white"/>
<path d="M133.671 39.1096C131.702 39.1096 130.718 38.0185 130.718 35.8364C130.718 34.7511 130.986 33.9228 131.521 33.3516C132.057 32.7765 132.824 32.489 133.824 32.489C134.555 32.489 135.211 32.6337 135.792 32.9231L135.283 34.2712C135.011 34.1608 134.759 34.0713 134.525 34.0028C134.291 33.9304 134.057 33.8942 133.824 33.8942C132.926 33.8942 132.477 34.5378 132.477 35.825C132.477 37.0741 132.926 37.6986 133.824 37.6986C134.155 37.6986 134.463 37.6548 134.746 37.5672C135.028 37.4758 135.311 37.3349 135.594 37.1445V38.6354C135.315 38.8144 135.032 38.9382 134.746 39.0067C134.463 39.0753 134.104 39.1096 133.671 39.1096Z" fill="white"/>
<path d="M142.812 32.609V38.9953H141.081V33.9171H138.79V38.9953H137.065V32.609H142.812Z" fill="white"/>
<path d="M147.241 33.7286C146.875 33.7286 146.589 33.8466 146.381 34.0827C146.174 34.315 146.055 34.6463 146.025 35.0767H148.446C148.438 34.6463 148.327 34.315 148.112 34.0827C147.897 33.8466 147.607 33.7286 147.241 33.7286ZM147.484 39.1096C146.466 39.1096 145.67 38.8259 145.097 38.2584C144.524 37.691 144.237 36.8875 144.237 35.8478C144.237 34.7777 144.501 33.9513 145.029 33.3687C145.561 32.7822 146.295 32.489 147.23 32.489C148.124 32.489 148.819 32.746 149.317 33.2602C149.815 33.7743 150.064 34.4845 150.064 35.3908V36.2363H145.985C146.004 36.7313 146.149 37.1179 146.421 37.3959C146.692 37.6739 147.073 37.8129 147.564 37.8129C147.944 37.8129 148.305 37.7729 148.644 37.6929C148.983 37.6129 149.338 37.4854 149.707 37.3102V38.6583C149.406 38.8106 149.083 38.923 148.74 38.9953C148.397 39.0715 147.978 39.1096 147.484 39.1096Z" fill="white"/>
<path d="M157.446 37.7215H158.368V41.286H156.818V38.9953H151.467V32.609H153.192V37.6872H155.715V32.609H157.446V37.7215Z" fill="white"/>
<path d="M164.675 32.609V33.9171H162.605V38.9953H160.879V33.9171H158.803V32.609H164.675Z" fill="white"/>
<path d="M168.476 33.7286C168.11 33.7286 167.824 33.8466 167.616 34.0827C167.409 34.315 167.29 34.6463 167.26 35.0767H169.681C169.674 34.6463 169.562 34.315 169.347 34.0827C169.132 33.8466 168.842 33.7286 168.476 33.7286ZM168.719 39.1096C167.701 39.1096 166.906 38.8259 166.332 38.2584C165.759 37.691 165.473 36.8875 165.473 35.8478C165.473 34.7777 165.737 33.9513 166.264 33.3687C166.796 32.7822 167.53 32.489 168.465 32.489C169.359 32.489 170.054 32.746 170.552 33.2602C171.05 33.7743 171.299 34.4845 171.299 35.3908V36.2363H167.22C167.239 36.7313 167.384 37.1179 167.656 37.3959C167.928 37.6739 168.308 37.8129 168.799 37.8129C169.18 37.8129 169.54 37.7729 169.879 37.6929C170.218 37.6129 170.573 37.4854 170.943 37.3102V38.6583C170.641 38.8106 170.318 38.923 169.975 38.9953C169.632 39.0715 169.213 39.1096 168.719 39.1096Z" fill="white"/>
<path d="M173.997 35.7336L171.961 32.609H173.918L175.145 34.6425L176.384 32.609H178.341L176.282 35.7336L178.438 38.9953H176.475L175.145 36.8075L173.81 38.9953H171.853L173.997 35.7336Z" fill="white"/>
<path d="M181.125 32.609V35.0652H183.534V32.609H185.26V38.9953H183.534V36.3619H181.125V38.9953H179.399V32.609H181.125Z" fill="white"/>
<path d="M188.738 32.609V35.1338C188.738 35.4004 188.695 36.0516 188.608 37.0874L191.527 32.609H193.603V38.9953H191.934V36.4476C191.934 35.9944 191.972 35.3547 192.048 34.5283L189.14 38.9953H187.07V32.609H188.738Z" fill="white"/>
<path d="M199.565 32.609H201.466L198.96 35.6707L201.687 38.9953H199.729L197.144 35.7564V38.9953H195.419V32.609H197.144V35.7107L199.565 32.609Z" fill="white"/>
<path d="M204.26 32.609V35.1338C204.26 35.4004 204.217 36.0516 204.13 37.0874L207.049 32.609H209.125V38.9953H207.456V36.4476C207.456 35.9944 207.494 35.3547 207.569 34.5283L204.662 38.9953H202.592V32.609H204.26Z" fill="white"/>
<path d="M215.619 32.609V35.1338C215.619 35.4004 215.576 36.0516 215.489 37.0874L218.408 32.609H220.484V38.9953H218.815V36.4476C218.815 35.9944 218.853 35.3547 218.928 34.5283L216.021 38.9953H213.95V32.609H215.619Z" fill="white"/>
<path d="M226.881 35.0652C227.534 35.0652 227.996 35.0119 228.267 34.9053C228.542 34.7987 228.68 34.6292 228.68 34.3969C228.68 34.1913 228.58 34.037 228.38 33.9342C228.18 33.8314 227.85 33.78 227.39 33.78C227.1 33.78 226.77 33.8162 226.4 33.8885C226.035 33.9609 225.701 34.0599 225.399 34.1855L224.89 32.9688C225.339 32.7975 225.774 32.6756 226.197 32.6032C226.619 32.5271 227.091 32.489 227.611 32.489C228.399 32.489 229.031 32.6413 229.506 32.946C229.981 33.2506 230.219 33.6638 230.219 34.1855C230.219 34.9053 229.798 35.3737 228.957 35.5908V35.6479C229.474 35.7774 229.842 35.9621 230.06 36.202C230.283 36.4381 230.394 36.7485 230.394 37.1331C230.394 37.5215 230.27 37.8662 230.021 38.167C229.772 38.4679 229.412 38.7002 228.94 38.8639C228.469 39.0277 227.915 39.1096 227.277 39.1096C226.221 39.1096 225.411 38.9782 224.845 38.7154V37.2759C225.169 37.4282 225.524 37.5482 225.908 37.6358C226.297 37.7234 226.672 37.7672 227.034 37.7672C227.596 37.7672 228.016 37.7043 228.295 37.5787C228.575 37.4492 228.714 37.2664 228.714 37.0303C228.714 36.7713 228.567 36.5809 228.273 36.459C227.979 36.3334 227.526 36.2705 226.915 36.2705H226.248V35.0652H226.881Z" fill="white"/>
<path d="M235.762 38.9953L235.429 38.127H235.383C235.093 38.4964 234.793 38.7535 234.484 38.8982C234.178 39.0391 233.779 39.1096 233.285 39.1096C232.678 39.1096 232.199 38.9344 231.848 38.584C231.501 38.2337 231.327 37.7348 231.327 37.0874C231.327 36.4095 231.561 35.9107 232.029 35.5908C232.5 35.2671 233.209 35.0881 234.156 35.0538L235.253 35.0195V34.7396C235.253 34.0922 234.925 33.7685 234.269 33.7685C233.764 33.7685 233.17 33.9228 232.487 34.2312L231.916 33.0545C232.644 32.6699 233.451 32.4776 234.337 32.4776C235.185 32.4776 235.836 32.6642 236.288 33.0374C236.741 33.4106 236.967 33.978 236.967 34.7396V38.9953H235.762ZM235.253 36.0363L234.586 36.0592C234.084 36.0744 233.711 36.1658 233.466 36.3334C233.221 36.5009 233.098 36.7561 233.098 37.0988C233.098 37.5901 233.377 37.8357 233.935 37.8357C234.335 37.8357 234.654 37.7196 234.891 37.4873C235.132 37.255 235.253 36.9465 235.253 36.5619V36.0363Z" fill="white"/>
<path d="M244.496 32.609V38.9953H242.765V33.9171H240.474V38.9953H238.749V32.609H244.496Z" fill="white"/>
<path d="M247.822 32.609V34.9453C247.822 35.5013 248.077 35.7793 248.586 35.7793C248.918 35.7793 249.225 35.7412 249.508 35.665C249.795 35.5889 250.083 35.4899 250.373 35.368V32.609H252.099V38.9953H250.373V36.459C249.974 36.6723 249.602 36.8227 249.259 36.9103C248.916 36.9979 248.584 37.0417 248.264 37.0417C247.573 37.0417 247.04 36.8646 246.663 36.5105C246.286 36.1525 246.097 35.6441 246.097 34.9853V32.609H247.822Z" fill="white"/>
<path d="M257.925 38.9953L257.591 38.127H257.546C257.256 38.4964 256.956 38.7535 256.647 38.8982C256.341 39.0391 255.941 39.1096 255.447 39.1096C254.84 39.1096 254.361 38.9344 254.011 38.584C253.664 38.2337 253.49 37.7348 253.49 37.0874C253.49 36.4095 253.724 35.9107 254.192 35.5908C254.663 35.2671 255.372 35.0881 256.319 35.0538L257.416 35.0195V34.7396C257.416 34.0922 257.088 33.7685 256.432 33.7685C255.926 33.7685 255.332 33.9228 254.65 34.2312L254.079 33.0545C254.806 32.6699 255.613 32.4776 256.5 32.4776C257.348 32.4776 257.999 32.6642 258.451 33.0374C258.904 33.4106 259.13 33.978 259.13 34.7396V38.9953H257.925ZM257.416 36.0363L256.749 36.0592C256.247 36.0744 255.874 36.1658 255.628 36.3334C255.383 36.5009 255.261 36.7561 255.261 37.0988C255.261 37.5901 255.54 37.8357 256.098 37.8357C256.498 37.8357 256.816 37.7196 257.054 37.4873C257.295 37.255 257.416 36.9465 257.416 36.5619V36.0363Z" fill="white"/>
<path d="M263.48 39.1096C261.511 39.1096 260.527 38.0185 260.527 35.8364C260.527 34.7511 260.795 33.9228 261.33 33.3516C261.866 32.7765 262.633 32.489 263.633 32.489C264.364 32.489 265.02 32.6337 265.601 32.9231L265.092 34.2712C264.821 34.1608 264.568 34.0713 264.334 34.0028C264.1 33.9304 263.866 33.8942 263.633 33.8942C262.735 33.8942 262.286 34.5378 262.286 35.825C262.286 37.0741 262.735 37.6986 263.633 37.6986C263.965 37.6986 264.272 37.6548 264.555 37.5672C264.838 37.4758 265.12 37.3349 265.403 37.1445V38.6354C265.124 38.8144 264.841 38.9382 264.555 39.0067C264.272 39.0753 263.914 39.1096 263.48 39.1096Z" fill="white"/>
<path d="M272.106 32.609V33.9171H270.036V38.9953H268.311V33.9171H266.235V32.609H272.106Z" fill="white"/>
<path d="M275.908 33.7286C275.542 33.7286 275.255 33.8466 275.048 34.0827C274.84 34.315 274.722 34.6463 274.691 35.0767H277.113C277.105 34.6463 276.994 34.315 276.779 34.0827C276.564 33.8466 276.273 33.7286 275.908 33.7286ZM276.151 39.1096C275.133 39.1096 274.337 38.8259 273.764 38.2584C273.191 37.691 272.904 36.8875 272.904 35.8478C272.904 34.7777 273.168 33.9513 273.696 33.3687C274.228 32.7822 274.961 32.489 275.896 32.489C276.79 32.489 277.486 32.746 277.984 33.2602C278.481 33.7743 278.73 34.4845 278.73 35.3908V36.2363H274.652C274.671 36.7313 274.816 37.1179 275.087 37.3959C275.359 37.6739 275.74 37.8129 276.23 37.8129C276.611 37.8129 276.971 37.7729 277.31 37.6929C277.65 37.6129 278.004 37.4854 278.374 37.3102V38.6583C278.072 38.8106 277.75 38.923 277.407 38.9953C277.063 39.0715 276.645 39.1096 276.151 39.1096Z" fill="white"/>
<path d="M281.802 32.609V35.1338C281.802 35.4004 281.759 36.0516 281.672 37.0874L284.591 32.609H286.667V38.9953H284.998V36.4476C284.998 35.9944 285.036 35.3547 285.111 34.5283L282.203 38.9953H280.133V32.609H281.802ZM286.158 29.8613C286.086 30.5735 285.82 31.0933 285.36 31.4208C284.9 31.7445 284.236 31.9063 283.369 31.9063C282.475 31.9063 281.813 31.7502 281.383 31.4379C280.957 31.1257 280.718 30.6001 280.665 29.8613H282.209C282.236 30.2536 282.332 30.5297 282.498 30.6896C282.667 30.8457 282.969 30.9238 283.403 30.9238C283.784 30.9238 284.066 30.8381 284.251 30.6668C284.44 30.4916 284.555 30.2231 284.596 29.8613H286.158Z" fill="white"/>
<defs>
<clipPath id="clip0">
<rect width="73.7143" height="43" fill="white"/>
</clipPath>
</defs>
</svg>
